IKResults																																			
version=1																																			
nRows=24																																			
nColumns=36																																			
inDegrees=yes																																			
																																			
"Units are S.I. units (second, meters, Newtons, ...)"																																			
"If the header above contains a line with 'inDegrees', this indicates whether rotational values are in degrees (yes) or radians (no)."																																			
																																			
endheader																																			
time	pelvis_tilt	pelvis_list	pelvis_rotation	pelvis_tx	pelvis_ty	pelvis_tz	hip_flexion_r	hip_adduction_r	hip_rotation_r	knee_angle_r	knee_angle_r_beta	ankle_angle_r	hip_flexion_l	hip_adduction_l	hip_rotation_l	knee_angle_l	knee_angle_l_beta	ankle_angle_l	lumbar_extension	lumbar_bending	lumbar_rotation	arm_flex_r	arm_add_r	arm_rot_r	elbow_flex_r	pro_sup_r	wrist_flex_r	wrist_dev_r	arm_flex_l	arm_add_l	arm_rot_l	elbow_flex_l	pro_sup_l	wrist_flex_l	wrist_dev_l
5.91	-0.71792298	5.15036893	174.0477383	0	0.85590289	-0.47993603	15.27339364	3.33074862	-9.10228868	21.89731686	0.38218028	5.22383873	-0.73722769	-13.26850582	-11.3425399	29.44244995	0.51386769	-14.46062531	-8.84614142	-0.03796988	4.18812783	9.33550593	-9.40036841	-13.68865463	49.41927523	54.58863354	0	0	-6.8359189	-8.60334	-16.70491509	41.34810155	51.23218149	0	0
5.92	-0.88657965	4.9780582	174.2286511	0	0.85711383	-0.48102501	14.4982981	3.23405831	-8.9228771	21.61124325	0.37718735	5.54455574	0.30919263	-13.29694129	-10.84645762	31.21080036	0.54473123	-13.75321916	-8.62667093	-0.15038489	4.24065489	9.6551397	-9.33829991	-13.5237744	49.48063274	54.58261374	0	0	-7.09479545	-8.58868496	-16.93011284	40.97004662	51.22545048	0	0
5.93	-1.18122939	4.77431926	174.3755368	0	0.85845952	-0.4820264	13.62616544	3.10271077	-8.61351599	21.38376889	0.37321717	5.87370711	1.16594279	-13.15250953	-10.28000805	32.7113965	0.57092157	-13.0376098	-8.28023066	-0.20648063	4.20235718	9.92480483	-9.26512696	-13.34484546	49.49622965	54.57363051	0	0	-7.33989641	-8.529535	-17.20061487	40.52959864	51.21805182	0	0
5.94	-1.31045363	4.62577902	174.580603	0	0.85951392	-0.48289492	12.87620838	3.00844401	-8.56022143	21.04339017	0.36727644	6.21869262	2.25165897	-13.12512048	-9.83854749	34.20034021	0.59690854	-11.66230883	-7.85668264	-0.1828067	4.33190309	10.09345697	-9.18893675	-13.26719093	49.51593834	54.57125162	0	0	-7.58508994	-8.47735607	-17.30034423	40.31566645	51.21248889	0	0
5.95	-1.42132334	4.45158773	174.7513379	0	0.86046715	-0.48370225	12.21482785	2.88243367	-8.47621043	20.80891154	0.36318402	6.47886179	3.32663621	-13.01566652	-9.45939133	35.45912674	0.61887851	-10.28336259	-7.57186605	-0.46876367	4.33848976	10.33692376	-8.98080981	-13.08493065	49.46229758	54.56038556	0	0	-7.81530413	-8.4547967	-17.56923779	39.81766567	51.2020237	0	0
5.96	-1.6180755	4.23073805	174.9168907	0	0.86150847	-0.48442822	11.45071685	2.70963973	-8.30286881	20.54066406	0.35850222	6.84179365	4.23573138	-12.76493483	-9.093888	36.39391058	0.63519357	-8.91853532	-7.37894424	-0.63858297	4.41952207	10.45509215	-8.84805973	-12.98074036	49.39687474	54.5529196	0	0	-8.05422347	-8.40949133	-17.71399656	39.51951346	51.194892	0	0
5.97	-1.80507227	4.03447475	175.1041453	0	0.86245048	-0.48504244	10.72259681	2.55729989	-8.13720483	20.31210447	0.3545131	7.17264585	5.13751975	-12.51020226	-8.77950025	37.11858157	0.64784146	-7.42103523	-7.24026283	-0.95606879	4.37684365	10.58454541	-8.60468089	-12.80410659	49.22236555	54.53745031	0	0	-8.22810108	-8.38318941	-17.96382879	39.01335978	51.18458457	0	0
5.98	-1.95779526	3.82207475	175.2366587	0	0.86326912	-0.4856361	10.0558544	2.37060752	-8.06102217	20.11030285	0.350991	7.46866104	6.02590418	-12.24789383	-8.65088845	37.6270673	0.65671621	-6.05748642	-7.19712662	-1.31241668	4.43475242	10.58458298	-8.39361579	-12.66517753	49.00668319	54.5220578	0	0	-8.38286976	-8.37144252	-18.19750484	38.60357021	51.17602441	0	0
5.99	-2.10308001	3.63214199	175.4000315	0	0.86397546	-0.48612313	9.41936997	2.20263998	-7.99764879	19.948125	0.34816046	7.76919669	6.89266303	-11.98539983	-8.56672416	37.90283651	0.66152929	-4.66159756	-7.21686212	-1.59416197	4.39026102	10.5316468	-8.17808045	-12.5467774	48.81544884	54.50855961	0	0	-8.5195847	-8.34831968	-18.40518661	38.24540745	51.16910618	0	0
6	-2.24507537	3.42215509	175.5520227	0	0.8646386	-0.48655557	8.79170727	2.01456299	-7.90376854	19.78331023	0.3452839	8.10641284	7.69915836	-11.67007574	-8.56147053	37.89832973	0.66145063	-3.40495616	-7.28526197	-1.95416961	4.41145609	10.36385529	-7.94957937	-12.45078994	48.60844176	54.49582475	0	0	-8.65109015	-8.33369919	-18.6031286	37.92018643	51.16251269	0	0
6.01	-2.34190466	3.22160073	175.6976011	0	0.8651968	-0.4869002	8.21603537	1.83290592	-7.79704685	19.62389263	0.34250154	8.41827063	8.49744519	-11.36641952	-8.67114287	37.63011001	0.65676932	-2.43942164	-7.26983162	-2.25203545	4.3684258	10.10983528	-7.7280844	-12.36974685	48.35297463	54.48107691	0	0	-8.77416939	-8.26413582	-18.8207322	37.57493393	51.15534075	0	0
6.02	-2.4905333	3.02685628	175.8656783	0	0.86564213	-0.48718722	7.62374958	1.64617372	-7.76596181	19.53186856	0.34089542	8.79548364	9.21641919	-11.03398372	-8.79812449	37.2041808	0.64933545	-1.23620648	-7.144544	-2.58865182	4.39764204	9.78718566	-7.50906552	-12.31362763	48.05308172	54.46527936	0	0	-8.87771153	-8.22791863	-19.05725318	37.24454247	51.14957264	0	0
6.03	-2.5854901	2.85498207	176.015087	0	0.8659703	-0.48743605	7.10109353	1.48128262	-7.72873122	19.45109771	0.3394857	9.14311141	9.94157613	-10.73434639	-9.02017641	36.54037564	0.63774986	-0.35819916	-7.01401988	-2.96205332	4.44984273	9.40996732	-7.29536538	-12.28438743	47.6985127	54.44909766	0	0	-8.92360358	-8.15952516	-19.30438631	36.88837469	51.14393526	0	0
6.04	-2.6858712	2.68082722	176.1645036	0	0.86619793	-0.48760924	6.59072895	1.30312617	-7.70843323	19.4143904	0.33884503	9.51937209	10.60387863	-10.4133748	-9.30533251	35.66860181	0.62253454	0.42505622	-6.74428814	-3.3511021	4.47712889	8.96307148	-7.025721	-12.2917759	47.30719435	54.43297881	0	0	-8.98953843	-8.09768513	-19.5294337	36.51391655	51.13593973	0	0
6.05	-2.68615881	2.64409968	176.3373478	0	0.86620229	-0.487714	6.19056378	1.2724508	-7.75611722	19.37869808	0.33822209	9.80186929	11.38585617	-10.29743069	-9.69903105	34.7060101	0.60573415	0.93340999	-6.3183418	-3.73889892	4.54999967	8.42054734	-6.7636777	-12.34339248	46.8925983	54.41791306	0	0	-9.12145543	-8.04333461	-19.7248045	36.23144714	51.13058972	0	0
6.06	-2.65627549	2.65531198	176.4984305	0	0.86605683	-0.48788535	5.83822347	1.30062832	-7.84986703	19.36799039	0.3380352	10.10235211	12.15828545	-10.2300844	-10.13198357	33.60118414	0.5864513	1.41372195	-5.99558777	-4.03459085	4.69410545	7.97239351	-6.46597154	-12.3877341	46.49071797	54.40396297	0	0	-9.19067005	-8.01168709	-19.88182863	36.00268906	51.12719872	0	0
6.07	-2.87967051	2.29233065	176.5931968	0	0.86620396	-0.48775542	5.29004912	0.87249807	-7.78543403	19.50596207	0.34044326	10.68014325	12.43031996	-9.5549632	-10.53580675	31.97037435	0.5579883	1.87309049	-5.72698726	-4.25565613	4.88317931	7.46180549	-6.22567698	-12.51282591	45.92811459	54.38757735	0	0	-9.13455272	-7.9547864	-20.06532273	35.78760146	51.12595843	0	0
6.08	-2.93780001	2.19593749	176.7445099	0	0.86604266	-0.48770124	4.86953497	0.7609665	-7.81317683	19.54989391	0.34121002	11.06923916	12.94704645	-9.26912389	-11.00761738	30.4108125	0.53076881	2.11274883	-5.48434734	-4.47027792	4.94484483	7.47219951	-5.72073845	-13.68327261	43.95033279	54.39398433	0	0	-8.66460169	-7.77445482	-21.24445049	34.57979456	51.11163257	0	0
6.09	-2.82531047	2.41029597	176.9447111	0	0.86546903	-0.48768174	4.61926817	0.99323428	-8.00765457	19.58595901	0.34183947	11.33505654	13.76423315	-9.42817374	-11.53752987	29.04944405	0.50700844	2.46434055	-5.31092809	-4.82284551	4.83045033	6.93787113	-5.43310781	-13.78020744	43.72252259	54.39451421	0	0	-8.56556758	-7.78054891	-21.37076286	34.67270116	51.11885985	0	0
6.1	-2.85854302	2.09268463	177.017306	0	0.86517241	-0.48747163	4.3022484	0.63451897	-7.84133114	19.76881865	0.34503097	11.85653023	14.1256087	-8.77206109	-11.98238832	27.03127818	0.47178481	2.53105442	-5.23566048	-5.18760132	4.53082523	6.42832706	-5.17857122	-13.8998449	43.38309725	54.39114266	0	0	-8.41010803	-7.7956675	-21.46896904	34.70635891	51.12094645	0	0
6.11	-2.93428241	2.0061757	177.134254	0	0.86481356	-0.48731104	3.92584065	0.49923423	-7.98247661	19.94371147	0.34808343	12.31383402	14.44109073	-8.4233995	-12.4857469	25.00095214	0.43634893	2.51259176	-5.40099142	-5.77230019	4.19481133	6.03640205	-4.92324588	-13.94714446	43.0622953	54.38242805	0	0	-8.10453077	-7.87445059	-21.47314276	34.79240702	51.12270355	0	0
6.12	-2.87201089	1.96432831	177.2474086	0	0.86419614	-0.48709983	3.69529278	0.43445559	-8.02014227	20.11139267	0.35101002	12.74030411	14.92144766	-8.10948915	-12.92255045	22.98371427	0.40114149	2.5828191	-5.53463367	-6.15187744	3.76481576	5.65356929	-4.69304145	-14.08672788	42.46404181	54.36888535	0	0	-7.74373216	-7.90598916	-21.42040095	34.86328533	51.11736608	0	0
6.13	-2.82655447	1.92289075	177.3600529	0	0.86353151	-0.48682634	3.46901451	0.35365494	-8.10393848	20.32283194	0.35470033	13.18435661	15.33239485	-7.75318723	-13.29215493	20.85132792	0.36392433	2.58368048	-5.74684079	-6.59336422	3.27351552	5.32870792	-4.46271083	-14.21961908	41.88814147	54.35544214	0	0	-7.2760204	-8.00850291	-21.303174	34.98717051	51.11137304	0	0
6.14	-2.76952055	1.87292078	177.4634953	0	0.86279743	-0.48651462	3.26013343	0.25820356	-8.20121649	20.54529641	0.35858307	13.64021179	15.70544246	-7.34603395	-13.56492971	18.61511676	0.32489508	2.55060408	-6.15647993	-6.96400647	2.65852676	5.08966952	-4.23478068	-14.27562289	41.58393842	54.34750203	0	0	-6.6472285	-8.11004924	-21.17519728	35.13836235	51.11042621	0	0
